<?xml version="1.0" encoding="utf-8" standalone="no"?>
<!DOCTYPE svg PUBLIC "-//W3C//DTD SVG 1.1//EN"
  "http://www.w3.org/Graphics/SVG/1.1/DTD/svg11.dtd">
<svg xmlns:xlink="http://www.w3.org/1999/xlink" width="576pt" height="288pt" viewBox="0 0 576 288" xmlns="http://www.w3.org/2000/svg" version="1.1">
 <metadata>
  <rdf:RDF xmlns:dc="http://purl.org/dc/elements/1.1/" xmlns:cc="http://creativecommons.org/ns#" xmlns:rdf="http://www.w3.org/1999/02/22-rdf-syntax-ns#">
   <cc:Work>
    <dc:type rdf:resource="http://purl.org/dc/dcmitype/StillImage"/>
    <dc:date>2026-04-10T00:17:27.123088</dc:date>
    <dc:format>image/svg+xml</dc:format>
    <dc:creator>
     <cc:Agent>
      <dc:title>Matplotlib v3.10.8, https://matplotlib.org/</dc:title>
     </cc:Agent>
    </dc:creator>
   </cc:Work>
  </rdf:RDF>
 </metadata>
 <defs>
  <style type="text/css">*{stroke-linejoin: round; stroke-linecap: butt}</style>
 </defs>
 <g id="figure_1">
  <g id="patch_1">
   <path d="M 0 288 
L 576 288 
L 576 0 
L 0 0 
z
" style="fill: #ffffff"/>
  </g>
  <g id="axes_1">
   <g id="patch_2">
    <path d="M 72 256.32 
L 518.4 256.32 
L 518.4 34.56 
L 72 34.56 
z
" style="fill: #ffffff"/>
   </g>
   <g id="matplotlib.axis_1">
    <g id="xtick_1">
     <g id="line2d_1">
      <path d="M 92.290909 256.32 
L 92.290909 34.56 
" clip-path="url(#p34e055168c)" style="fill: none; stroke: #b0b0b0; stroke-opacity: 0.3; stroke-width: 0.8; stroke-linecap: square"/>
     </g>
     <g id="line2d_2">
      <defs>
       <path id="m7a037331f8" d="M 0 0 
L 0 3.5 
" style="stroke: #000000; stroke-width: 0.8"/>
      </defs>
      <g>
       <use xlink:href="#m7a037331f8" x="92.290909" y="256.32" style="stroke: #000000; stroke-width: 0.8"/>
      </g>
     </g>
     <g id="text_1">
      <!-- 0 -->
      <g transform="translate(89.109659 270.918437) scale(0.1 -0.1)">
       <defs>
        <path id="DejaVuSans-30" d="M 2034 4250 
Q 1547 4250 1301 3770 
Q 1056 3291 1056 2328 
Q 1056 1369 1301 889 
Q 1547 409 2034 409 
Q 2525 409 2770 889 
Q 3016 1369 3016 2328 
Q 3016 3291 2770 3770 
Q 2525 4250 2034 4250 
z
M 2034 4750 
Q 2819 4750 3233 4129 
Q 3647 3509 3647 2328 
Q 3647 1150 3233 529 
Q 2819 -91 2034 -91 
Q 1250 -91 836 529 
Q 422 1150 422 2328 
Q 422 3509 836 4129 
Q 1250 4750 2034 4750 
z
" transform="scale(0.015625)"/>
       </defs>
       <use xlink:href="#DejaVuSans-30"/>
      </g>
     </g>
    </g>
    <g id="xtick_2">
     <g id="line2d_3">
      <path d="M 168.860377 256.32 
L 168.860377 34.56 
" clip-path="url(#p34e055168c)" style="fill: none; stroke: #b0b0b0; stroke-opacity: 0.3; stroke-width: 0.8; stroke-linecap: square"/>
     </g>
     <g id="line2d_4">
      <g>
       <use xlink:href="#m7a037331f8" x="168.860377" y="256.32" style="stroke: #000000; stroke-width: 0.8"/>
      </g>
     </g>
     <g id="text_2">
      <!-- 20 -->
      <g transform="translate(162.497877 270.918437) scale(0.1 -0.1)">
       <defs>
        <path id="DejaVuSans-32" d="M 1228 531 
L 3431 531 
L 3431 0 
L 469 0 
L 469 531 
Q 828 903 1448 1529 
Q 2069 2156 2228 2338 
Q 2531 2678 2651 2914 
Q 2772 3150 2772 3378 
Q 2772 3750 2511 3984 
Q 2250 4219 1831 4219 
Q 1534 4219 1204 4116 
Q 875 4013 500 3803 
L 500 4441 
Q 881 4594 1212 4672 
Q 1544 4750 1819 4750 
Q 2544 4750 2975 4387 
Q 3406 4025 3406 3419 
Q 3406 3131 3298 2873 
Q 3191 2616 2906 2266 
Q 2828 2175 2409 1742 
Q 1991 1309 1228 531 
z
" transform="scale(0.015625)"/>
       </defs>
       <use xlink:href="#DejaVuSans-32"/>
       <use xlink:href="#DejaVuSans-30" transform="translate(63.623047 0)"/>
      </g>
     </g>
    </g>
    <g id="xtick_3">
     <g id="line2d_5">
      <path d="M 245.429846 256.32 
L 245.429846 34.56 
" clip-path="url(#p34e055168c)" style="fill: none; stroke: #b0b0b0; stroke-opacity: 0.3; stroke-width: 0.8; stroke-linecap: square"/>
     </g>
     <g id="line2d_6">
      <g>
       <use xlink:href="#m7a037331f8" x="245.429846" y="256.32" style="stroke: #000000; stroke-width: 0.8"/>
      </g>
     </g>
     <g id="text_3">
      <!-- 40 -->
      <g transform="translate(239.067346 270.918437) scale(0.1 -0.1)">
       <defs>
        <path id="DejaVuSans-34" d="M 2419 4116 
L 825 1625 
L 2419 1625 
L 2419 4116 
z
M 2253 4666 
L 3047 4666 
L 3047 1625 
L 3713 1625 
L 3713 1100 
L 3047 1100 
L 3047 0 
L 2419 0 
L 2419 1100 
L 313 1100 
L 313 1709 
L 2253 4666 
z
" transform="scale(0.015625)"/>
       </defs>
       <use xlink:href="#DejaVuSans-34"/>
       <use xlink:href="#DejaVuSans-30" transform="translate(63.623047 0)"/>
      </g>
     </g>
    </g>
    <g id="xtick_4">
     <g id="line2d_7">
      <path d="M 321.999314 256.32 
L 321.999314 34.56 
" clip-path="url(#p34e055168c)" style="fill: none; stroke: #b0b0b0; stroke-opacity: 0.3; stroke-width: 0.8; stroke-linecap: square"/>
     </g>
     <g id="line2d_8">
      <g>
       <use xlink:href="#m7a037331f8" x="321.999314" y="256.32" style="stroke: #000000; stroke-width: 0.8"/>
      </g>
     </g>
     <g id="text_4">
      <!-- 60 -->
      <g transform="translate(315.636814 270.918437) scale(0.1 -0.1)">
       <defs>
        <path id="DejaVuSans-36" d="M 2113 2584 
Q 1688 2584 1439 2293 
Q 1191 2003 1191 1497 
Q 1191 994 1439 701 
Q 1688 409 2113 409 
Q 2538 409 2786 701 
Q 3034 994 3034 1497 
Q 3034 2003 2786 2293 
Q 2538 2584 2113 2584 
z
M 3366 4563 
L 3366 3988 
Q 3128 4100 2886 4159 
Q 2644 4219 2406 4219 
Q 1781 4219 1451 3797 
Q 1122 3375 1075 2522 
Q 1259 2794 1537 2939 
Q 1816 3084 2150 3084 
Q 2853 3084 3261 2657 
Q 3669 2231 3669 1497 
Q 3669 778 3244 343 
Q 2819 -91 2113 -91 
Q 1303 -91 875 529 
Q 447 1150 447 2328 
Q 447 3434 972 4092 
Q 1497 4750 2381 4750 
Q 2619 4750 2861 4703 
Q 3103 4656 3366 4563 
z
" transform="scale(0.015625)"/>
       </defs>
       <use xlink:href="#DejaVuSans-36"/>
       <use xlink:href="#DejaVuSans-30" transform="translate(63.623047 0)"/>
      </g>
     </g>
    </g>
    <g id="xtick_5">
     <g id="line2d_9">
      <path d="M 398.568782 256.32 
L 398.568782 34.56 
" clip-path="url(#p34e055168c)" style="fill: none; stroke: #b0b0b0; stroke-opacity: 0.3; stroke-width: 0.8; stroke-linecap: square"/>
     </g>
     <g id="line2d_10">
      <g>
       <use xlink:href="#m7a037331f8" x="398.568782" y="256.32" style="stroke: #000000; stroke-width: 0.8"/>
      </g>
     </g>
     <g id="text_5">
      <!-- 80 -->
      <g transform="translate(392.206282 270.918437) scale(0.1 -0.1)">
       <defs>
        <path id="DejaVuSans-38" d="M 2034 2216 
Q 1584 2216 1326 1975 
Q 1069 1734 1069 1313 
Q 1069 891 1326 650 
Q 1584 409 2034 409 
Q 2484 409 2743 651 
Q 3003 894 3003 1313 
Q 3003 1734 2745 1975 
Q 2488 2216 2034 2216 
z
M 1403 2484 
Q 997 2584 770 2862 
Q 544 3141 544 3541 
Q 544 4100 942 4425 
Q 1341 4750 2034 4750 
Q 2731 4750 3128 4425 
Q 3525 4100 3525 3541 
Q 3525 3141 3298 2862 
Q 3072 2584 2669 2484 
Q 3125 2378 3379 2068 
Q 3634 1759 3634 1313 
Q 3634 634 3220 271 
Q 2806 -91 2034 -91 
Q 1263 -91 848 271 
Q 434 634 434 1313 
Q 434 1759 690 2068 
Q 947 2378 1403 2484 
z
M 1172 3481 
Q 1172 3119 1398 2916 
Q 1625 2713 2034 2713 
Q 2441 2713 2670 2916 
Q 2900 3119 2900 3481 
Q 2900 3844 2670 4047 
Q 2441 4250 2034 4250 
Q 1625 4250 1398 4047 
Q 1172 3844 1172 3481 
z
" transform="scale(0.015625)"/>
       </defs>
       <use xlink:href="#DejaVuSans-38"/>
       <use xlink:href="#DejaVuSans-30" transform="translate(63.623047 0)"/>
      </g>
     </g>
    </g>
    <g id="xtick_6">
     <g id="line2d_11">
      <path d="M 475.13825 256.32 
L 475.13825 34.56 
" clip-path="url(#p34e055168c)" style="fill: none; stroke: #b0b0b0; stroke-opacity: 0.3; stroke-width: 0.8; stroke-linecap: square"/>
     </g>
     <g id="line2d_12">
      <g>
       <use xlink:href="#m7a037331f8" x="475.13825" y="256.32" style="stroke: #000000; stroke-width: 0.8"/>
      </g>
     </g>
     <g id="text_6">
      <!-- 100 -->
      <g transform="translate(465.5945 270.918437) scale(0.1 -0.1)">
       <defs>
        <path id="DejaVuSans-31" d="M 794 531 
L 1825 531 
L 1825 4091 
L 703 3866 
L 703 4441 
L 1819 4666 
L 2450 4666 
L 2450 531 
L 3481 531 
L 3481 0 
L 794 0 
L 794 531 
z
" transform="scale(0.015625)"/>
       </defs>
       <use xlink:href="#DejaVuSans-31"/>
       <use xlink:href="#DejaVuSans-30" transform="translate(63.623047 0)"/>
       <use xlink:href="#DejaVuSans-30" transform="translate(127.246094 0)"/>
      </g>
     </g>
    </g>
    <g id="text_7">
     <!-- Step -->
     <g transform="translate(283.814844 284.596563) scale(0.1 -0.1)">
      <defs>
       <path id="DejaVuSans-53" d="M 3425 4513 
L 3425 3897 
Q 3066 4069 2747 4153 
Q 2428 4238 2131 4238 
Q 1616 4238 1336 4038 
Q 1056 3838 1056 3469 
Q 1056 3159 1242 3001 
Q 1428 2844 1947 2747 
L 2328 2669 
Q 3034 2534 3370 2195 
Q 3706 1856 3706 1288 
Q 3706 609 3251 259 
Q 2797 -91 1919 -91 
Q 1588 -91 1214 -16 
Q 841 59 441 206 
L 441 856 
Q 825 641 1194 531 
Q 1563 422 1919 422 
Q 2459 422 2753 634 
Q 3047 847 3047 1241 
Q 3047 1584 2836 1778 
Q 2625 1972 2144 2069 
L 1759 2144 
Q 1053 2284 737 2584 
Q 422 2884 422 3419 
Q 422 4038 858 4394 
Q 1294 4750 2059 4750 
Q 2388 4750 2728 4690 
Q 3069 4631 3425 4513 
z
" transform="scale(0.015625)"/>
       <path id="DejaVuSans-74" d="M 1172 4494 
L 1172 3500 
L 2356 3500 
L 2356 3053 
L 1172 3053 
L 1172 1153 
Q 1172 725 1289 603 
Q 1406 481 1766 481 
L 2356 481 
L 2356 0 
L 1766 0 
Q 1100 0 847 248 
Q 594 497 594 1153 
L 594 3053 
L 172 3053 
L 172 3500 
L 594 3500 
L 594 4494 
L 1172 4494 
z
" transform="scale(0.015625)"/>
       <path id="DejaVuSans-65" d="M 3597 1894 
L 3597 1613 
L 953 1613 
Q 991 1019 1311 708 
Q 1631 397 2203 397 
Q 2534 397 2845 478 
Q 3156 559 3463 722 
L 3463 178 
Q 3153 47 2828 -22 
Q 2503 -91 2169 -91 
Q 1331 -91 842 396 
Q 353 884 353 1716 
Q 353 2575 817 3079 
Q 1281 3584 2069 3584 
Q 2775 3584 3186 3129 
Q 3597 2675 3597 1894 
z
M 3022 2063 
Q 3016 2534 2758 2815 
Q 2500 3097 2075 3097 
Q 1594 3097 1305 2825 
Q 1016 2553 972 2059 
L 3022 2063 
z
" transform="scale(0.015625)"/>
       <path id="DejaVuSans-70" d="M 1159 525 
L 1159 -1331 
L 581 -1331 
L 581 3500 
L 1159 3500 
L 1159 2969 
Q 1341 3281 1617 3432 
Q 1894 3584 2278 3584 
Q 2916 3584 3314 3078 
Q 3713 2572 3713 1747 
Q 3713 922 3314 415 
Q 2916 -91 2278 -91 
Q 1894 -91 1617 61 
Q 1341 213 1159 525 
z
M 3116 1747 
Q 3116 2381 2855 2742 
Q 2594 3103 2138 3103 
Q 1681 3103 1420 2742 
Q 1159 2381 1159 1747 
Q 1159 1113 1420 752 
Q 1681 391 2138 391 
Q 2594 391 2855 752 
Q 3116 1113 3116 1747 
z
" transform="scale(0.015625)"/>
      </defs>
      <use xlink:href="#DejaVuSans-53"/>
      <use xlink:href="#DejaVuSans-74" transform="translate(63.476562 0)"/>
      <use xlink:href="#DejaVuSans-65" transform="translate(102.685547 0)"/>
      <use xlink:href="#DejaVuSans-70" transform="translate(164.208984 0)"/>
     </g>
    </g>
   </g>
   <g id="matplotlib.axis_2">
    <g id="ytick_1">
     <g id="line2d_13">
      <path d="M 72 246.24 
L 518.4 246.24 
" clip-path="url(#p34e055168c)" style="fill: none; stroke: #b0b0b0; stroke-opacity: 0.3; stroke-width: 0.8; stroke-linecap: square"/>
     </g>
     <g id="line2d_14">
      <defs>
       <path id="m820bc93a63" d="M 0 0 
L -3.5 0 
" style="stroke: #000000; stroke-width: 0.8"/>
      </defs>
      <g>
       <use xlink:href="#m820bc93a63" x="72" y="246.24" style="stroke: #000000; stroke-width: 0.8"/>
      </g>
     </g>
     <g id="text_8">
      <!-- 0 -->
      <g transform="translate(58.6375 250.039219) scale(0.1 -0.1)">
       <use xlink:href="#DejaVuSans-30"/>
      </g>
     </g>
    </g>
    <g id="ytick_2">
     <g id="line2d_15">
      <path d="M 72 212.64 
L 518.4 212.64 
" clip-path="url(#p34e055168c)" style="fill: none; stroke: #b0b0b0; stroke-opacity: 0.3; stroke-width: 0.8; stroke-linecap: square"/>
     </g>
     <g id="line2d_16">
      <g>
       <use xlink:href="#m820bc93a63" x="72" y="212.64" style="stroke: #000000; stroke-width: 0.8"/>
      </g>
     </g>
     <g id="text_9">
      <!-- 2 -->
      <g transform="translate(58.6375 216.439219) scale(0.1 -0.1)">
       <use xlink:href="#DejaVuSans-32"/>
      </g>
     </g>
    </g>
    <g id="ytick_3">
     <g id="line2d_17">
      <path d="M 72 179.04 
L 518.4 179.04 
" clip-path="url(#p34e055168c)" style="fill: none; stroke: #b0b0b0; stroke-opacity: 0.3; stroke-width: 0.8; stroke-linecap: square"/>
     </g>
     <g id="line2d_18">
      <g>
       <use xlink:href="#m820bc93a63" x="72" y="179.04" style="stroke: #000000; stroke-width: 0.8"/>
      </g>
     </g>
     <g id="text_10">
      <!-- 4 -->
      <g transform="translate(58.6375 182.839219) scale(0.1 -0.1)">
       <use xlink:href="#DejaVuSans-34"/>
      </g>
     </g>
    </g>
    <g id="ytick_4">
     <g id="line2d_19">
      <path d="M 72 145.44 
L 518.4 145.44 
" clip-path="url(#p34e055168c)" style="fill: none; stroke: #b0b0b0; stroke-opacity: 0.3; stroke-width: 0.8; stroke-linecap: square"/>
     </g>
     <g id="line2d_20">
      <g>
       <use xlink:href="#m820bc93a63" x="72" y="145.44" style="stroke: #000000; stroke-width: 0.8"/>
      </g>
     </g>
     <g id="text_11">
      <!-- 6 -->
      <g transform="translate(58.6375 149.239219) scale(0.1 -0.1)">
       <use xlink:href="#DejaVuSans-36"/>
      </g>
     </g>
    </g>
    <g id="ytick_5">
     <g id="line2d_21">
      <path d="M 72 111.84 
L 518.4 111.84 
" clip-path="url(#p34e055168c)" style="fill: none; stroke: #b0b0b0; stroke-opacity: 0.3; stroke-width: 0.8; stroke-linecap: square"/>
     </g>
     <g id="line2d_22">
      <g>
       <use xlink:href="#m820bc93a63" x="72" y="111.84" style="stroke: #000000; stroke-width: 0.8"/>
      </g>
     </g>
     <g id="text_12">
      <!-- 8 -->
      <g transform="translate(58.6375 115.639219) scale(0.1 -0.1)">
       <use xlink:href="#DejaVuSans-38"/>
      </g>
     </g>
    </g>
    <g id="ytick_6">
     <g id="line2d_23">
      <path d="M 72 78.24 
L 518.4 78.24 
" clip-path="url(#p34e055168c)" style="fill: none; stroke: #b0b0b0; stroke-opacity: 0.3; stroke-width: 0.8; stroke-linecap: square"/>
     </g>
     <g id="line2d_24">
      <g>
       <use xlink:href="#m820bc93a63" x="72" y="78.24" style="stroke: #000000; stroke-width: 0.8"/>
      </g>
     </g>
     <g id="text_13">
      <!-- 10 -->
      <g transform="translate(52.275 82.039219) scale(0.1 -0.1)">
       <use xlink:href="#DejaVuSans-31"/>
       <use xlink:href="#DejaVuSans-30" transform="translate(63.623047 0)"/>
      </g>
     </g>
    </g>
    <g id="ytick_7">
     <g id="line2d_25">
      <path d="M 72 44.64 
L 518.4 44.64 
" clip-path="url(#p34e055168c)" style="fill: none; stroke: #b0b0b0; stroke-opacity: 0.3; stroke-width: 0.8; stroke-linecap: square"/>
     </g>
     <g id="line2d_26">
      <g>
       <use xlink:href="#m820bc93a63" x="72" y="44.64" style="stroke: #000000; stroke-width: 0.8"/>
      </g>
     </g>
     <g id="text_14">
      <!-- 12 -->
      <g transform="translate(52.275 48.439219) scale(0.1 -0.1)">
       <use xlink:href="#DejaVuSans-31"/>
       <use xlink:href="#DejaVuSans-32" transform="translate(63.623047 0)"/>
      </g>
     </g>
    </g>
    <g id="text_15">
     <!-- Number of wastes -->
     <g transform="translate(46.195312 190.922812) rotate(-90) scale(0.1 -0.1)">
      <defs>
       <path id="DejaVuSans-4e" d="M 628 4666 
L 1478 4666 
L 3547 763 
L 3547 4666 
L 4159 4666 
L 4159 0 
L 3309 0 
L 1241 3903 
L 1241 0 
L 628 0 
L 628 4666 
z
" transform="scale(0.015625)"/>
       <path id="DejaVuSans-75" d="M 544 1381 
L 544 3500 
L 1119 3500 
L 1119 1403 
Q 1119 906 1312 657 
Q 1506 409 1894 409 
Q 2359 409 2629 706 
Q 2900 1003 2900 1516 
L 2900 3500 
L 3475 3500 
L 3475 0 
L 2900 0 
L 2900 538 
Q 2691 219 2414 64 
Q 2138 -91 1772 -91 
Q 1169 -91 856 284 
Q 544 659 544 1381 
z
M 1991 3584 
L 1991 3584 
z
" transform="scale(0.015625)"/>
       <path id="DejaVuSans-6d" d="M 3328 2828 
Q 3544 3216 3844 3400 
Q 4144 3584 4550 3584 
Q 5097 3584 5394 3201 
Q 5691 2819 5691 2113 
L 5691 0 
L 5113 0 
L 5113 2094 
Q 5113 2597 4934 2840 
Q 4756 3084 4391 3084 
Q 3944 3084 3684 2787 
Q 3425 2491 3425 1978 
L 3425 0 
L 2847 0 
L 2847 2094 
Q 2847 2600 2669 2842 
Q 2491 3084 2119 3084 
Q 1678 3084 1418 2786 
Q 1159 2488 1159 1978 
L 1159 0 
L 581 0 
L 581 3500 
L 1159 3500 
L 1159 2956 
Q 1356 3278 1631 3431 
Q 1906 3584 2284 3584 
Q 2666 3584 2933 3390 
Q 3200 3197 3328 2828 
z
" transform="scale(0.015625)"/>
       <path id="DejaVuSans-62" d="M 3116 1747 
Q 3116 2381 2855 2742 
Q 2594 3103 2138 3103 
Q 1681 3103 1420 2742 
Q 1159 2381 1159 1747 
Q 1159 1113 1420 752 
Q 1681 391 2138 391 
Q 2594 391 2855 752 
Q 3116 1113 3116 1747 
z
M 1159 2969 
Q 1341 3281 1617 3432 
Q 1894 3584 2278 3584 
Q 2916 3584 3314 3078 
Q 3713 2572 3713 1747 
Q 3713 922 3314 415 
Q 2916 -91 2278 -91 
Q 1894 -91 1617 61 
Q 1341 213 1159 525 
L 1159 0 
L 581 0 
L 581 4863 
L 1159 4863 
L 1159 2969 
z
" transform="scale(0.015625)"/>
       <path id="DejaVuSans-72" d="M 2631 2963 
Q 2534 3019 2420 3045 
Q 2306 3072 2169 3072 
Q 1681 3072 1420 2755 
Q 1159 2438 1159 1844 
L 1159 0 
L 581 0 
L 581 3500 
L 1159 3500 
L 1159 2956 
Q 1341 3275 1631 3429 
Q 1922 3584 2338 3584 
Q 2397 3584 2469 3576 
Q 2541 3569 2628 3553 
L 2631 2963 
z
" transform="scale(0.015625)"/>
       <path id="DejaVuSans-20" transform="scale(0.015625)"/>
       <path id="DejaVuSans-6f" d="M 1959 3097 
Q 1497 3097 1228 2736 
Q 959 2375 959 1747 
Q 959 1119 1226 758 
Q 1494 397 1959 397 
Q 2419 397 2687 759 
Q 2956 1122 2956 1747 
Q 2956 2369 2687 2733 
Q 2419 3097 1959 3097 
z
M 1959 3584 
Q 2709 3584 3137 3096 
Q 3566 2609 3566 1747 
Q 3566 888 3137 398 
Q 2709 -91 1959 -91 
Q 1206 -91 779 398 
Q 353 888 353 1747 
Q 353 2609 779 3096 
Q 1206 3584 1959 3584 
z
" transform="scale(0.015625)"/>
       <path id="DejaVuSans-66" d="M 2375 4863 
L 2375 4384 
L 1825 4384 
Q 1516 4384 1395 4259 
Q 1275 4134 1275 3809 
L 1275 3500 
L 2222 3500 
L 2222 3053 
L 1275 3053 
L 1275 0 
L 697 0 
L 697 3053 
L 147 3053 
L 147 3500 
L 697 3500 
L 697 3744 
Q 697 4328 969 4595 
Q 1241 4863 1831 4863 
L 2375 4863 
z
" transform="scale(0.015625)"/>
       <path id="DejaVuSans-77" d="M 269 3500 
L 844 3500 
L 1563 769 
L 2278 3500 
L 2956 3500 
L 3675 769 
L 4391 3500 
L 4966 3500 
L 4050 0 
L 3372 0 
L 2619 2869 
L 1863 0 
L 1184 0 
L 269 3500 
z
" transform="scale(0.015625)"/>
       <path id="DejaVuSans-61" d="M 2194 1759 
Q 1497 1759 1228 1600 
Q 959 1441 959 1056 
Q 959 750 1161 570 
Q 1363 391 1709 391 
Q 2188 391 2477 730 
Q 2766 1069 2766 1631 
L 2766 1759 
L 2194 1759 
z
M 3341 1997 
L 3341 0 
L 2766 0 
L 2766 531 
Q 2569 213 2275 61 
Q 1981 -91 1556 -91 
Q 1019 -91 701 211 
Q 384 513 384 1019 
Q 384 1609 779 1909 
Q 1175 2209 1959 2209 
L 2766 2209 
L 2766 2266 
Q 2766 2663 2505 2880 
Q 2244 3097 1772 3097 
Q 1472 3097 1187 3025 
Q 903 2953 641 2809 
L 641 3341 
Q 956 3463 1253 3523 
Q 1550 3584 1831 3584 
Q 2591 3584 2966 3190 
Q 3341 2797 3341 1997 
z
" transform="scale(0.015625)"/>
       <path id="DejaVuSans-73" d="M 2834 3397 
L 2834 2853 
Q 2591 2978 2328 3040 
Q 2066 3103 1784 3103 
Q 1356 3103 1142 2972 
Q 928 2841 928 2578 
Q 928 2378 1081 2264 
Q 1234 2150 1697 2047 
L 1894 2003 
Q 2506 1872 2764 1633 
Q 3022 1394 3022 966 
Q 3022 478 2636 193 
Q 2250 -91 1575 -91 
Q 1294 -91 989 -36 
Q 684 19 347 128 
L 347 722 
Q 666 556 975 473 
Q 1284 391 1588 391 
Q 1994 391 2212 530 
Q 2431 669 2431 922 
Q 2431 1156 2273 1281 
Q 2116 1406 1581 1522 
L 1381 1569 
Q 847 1681 609 1914 
Q 372 2147 372 2553 
Q 372 3047 722 3315 
Q 1072 3584 1716 3584 
Q 2034 3584 2315 3537 
Q 2597 3491 2834 3397 
z
" transform="scale(0.015625)"/>
      </defs>
      <use xlink:href="#DejaVuSans-4e"/>
      <use xlink:href="#DejaVuSans-75" transform="translate(74.804688 0)"/>
      <use xlink:href="#DejaVuSans-6d" transform="translate(138.183594 0)"/>
      <use xlink:href="#DejaVuSans-62" transform="translate(235.595703 0)"/>
      <use xlink:href="#DejaVuSans-65" transform="translate(299.072266 0)"/>
      <use xlink:href="#DejaVuSans-72" transform="translate(360.595703 0)"/>
      <use xlink:href="#DejaVuSans-20" transform="translate(401.708984 0)"/>
      <use xlink:href="#DejaVuSans-6f" transform="translate(433.496094 0)"/>
      <use xlink:href="#DejaVuSans-66" transform="translate(494.677734 0)"/>
      <use xlink:href="#DejaVuSans-20" transform="translate(529.882812 0)"/>
      <use xlink:href="#DejaVuSans-77" transform="translate(561.669922 0)"/>
      <use xlink:href="#DejaVuSans-61" transform="translate(643.457031 0)"/>
      <use xlink:href="#DejaVuSans-73" transform="translate(704.736328 0)"/>
      <use xlink:href="#DejaVuSans-74" transform="translate(756.835938 0)"/>
      <use xlink:href="#DejaVuSans-65" transform="translate(796.044922 0)"/>
      <use xlink:href="#DejaVuSans-73" transform="translate(857.568359 0)"/>
     </g>
    </g>
   </g>
   <g id="line2d_27">
    <path d="M 92.290909 44.64 
L 96.119383 44.64 
L 99.947856 44.64 
L 103.776329 44.64 
L 107.604803 44.64 
L 111.433276 44.64 
L 115.26175 44.64 
L 119.090223 78.24 
L 122.918696 78.24 
L 126.74717 78.24 
L 130.575643 111.84 
L 134.404117 111.84 
L 138.23259 111.84 
L 142.061063 111.84 
L 145.889537 111.84 
L 149.71801 111.84 
L 153.546484 111.84 
L 157.374957 111.84 
L 161.203431 111.84 
L 165.031904 111.84 
L 168.860377 111.84 
L 172.688851 111.84 
L 176.517324 111.84 
L 180.345798 111.84 
L 184.174271 111.84 
L 188.002744 111.84 
L 191.831218 111.84 
L 195.659691 145.44 
L 199.488165 145.44 
L 203.316638 145.44 
L 207.145111 145.44 
L 210.973585 145.44 
L 214.802058 145.44 
L 218.630532 145.44 
L 222.459005 145.44 
L 226.287479 145.44 
L 230.115952 145.44 
L 233.944425 145.44 
L 237.772899 145.44 
L 241.601372 145.44 
L 245.429846 145.44 
L 249.258319 145.44 
L 253.086792 145.44 
L 256.915266 145.44 
L 260.743739 145.44 
L 264.572213 145.44 
L 268.400686 145.44 
L 272.22916 145.44 
L 276.057633 145.44 
L 279.886106 145.44 
L 283.71458 145.44 
L 287.543053 145.44 
L 291.371527 145.44 
L 295.2 145.44 
L 299.028473 145.44 
L 302.856947 145.44 
L 306.68542 145.44 
L 310.513894 145.44 
L 314.342367 179.04 
L 318.17084 179.04 
L 321.999314 179.04 
L 325.827787 179.04 
L 329.656261 212.64 
L 333.484734 212.64 
L 337.313208 212.64 
L 341.141681 212.64 
L 344.970154 212.64 
L 348.798628 212.64 
L 352.627101 212.64 
L 356.455575 212.64 
L 360.284048 212.64 
L 364.112521 212.64 
L 367.940995 212.64 
L 371.769468 212.64 
L 375.597942 212.64 
L 379.426415 212.64 
L 383.254889 212.64 
L 387.083362 212.64 
L 390.911835 212.64 
L 394.740309 212.64 
L 398.568782 212.64 
L 402.397256 212.64 
L 406.225729 212.64 
L 410.054202 212.64 
L 413.882676 212.64 
L 417.711149 212.64 
L 421.539623 246.24 
L 425.368096 246.24 
L 429.196569 246.24 
L 433.025043 246.24 
L 436.853516 246.24 
L 440.68199 246.24 
L 444.510463 246.24 
L 448.338937 246.24 
L 452.16741 246.24 
L 455.995883 246.24 
L 459.824357 246.24 
L 463.65283 246.24 
L 467.481304 246.24 
L 471.309777 246.24 
L 475.13825 246.24 
L 478.966724 246.24 
L 482.795197 246.24 
L 486.623671 246.24 
L 490.452144 246.24 
L 494.280617 246.24 
L 498.109091 246.24 
" clip-path="url(#p34e055168c)" style="fill: none; stroke: #008000; stroke-width: 2; stroke-linecap: square"/>
   </g>
   <g id="line2d_28">
    <path d="M 92.290909 246.24 
L 96.119383 246.24 
L 99.947856 246.24 
L 103.776329 246.24 
L 107.604803 246.24 
L 111.433276 246.24 
L 115.26175 246.24 
L 119.090223 229.44 
L 122.918696 229.44 
L 126.74717 229.44 
L 130.575643 212.64 
L 134.404117 212.64 
L 138.23259 212.64 
L 142.061063 212.64 
L 145.889537 212.64 
L 149.71801 212.64 
L 153.546484 212.64 
L 157.374957 212.64 
L 161.203431 212.64 
L 165.031904 212.64 
L 168.860377 212.64 
L 172.688851 212.64 
L 176.517324 212.64 
L 180.345798 212.64 
L 184.174271 212.64 
L 188.002744 212.64 
L 191.831218 212.64 
L 195.659691 195.84 
L 199.488165 195.84 
L 203.316638 195.84 
L 207.145111 195.84 
L 210.973585 195.84 
L 214.802058 195.84 
L 218.630532 195.84 
L 222.459005 195.84 
L 226.287479 195.84 
L 230.115952 195.84 
L 233.944425 195.84 
L 237.772899 195.84 
L 241.601372 195.84 
L 245.429846 195.84 
L 249.258319 195.84 
L 253.086792 195.84 
L 256.915266 195.84 
L 260.743739 195.84 
L 264.572213 195.84 
L 268.400686 195.84 
L 272.22916 195.84 
L 276.057633 195.84 
L 279.886106 195.84 
L 283.71458 195.84 
L 287.543053 195.84 
L 291.371527 195.84 
L 295.2 195.84 
L 299.028473 195.84 
L 302.856947 195.84 
L 306.68542 195.84 
L 310.513894 195.84 
L 314.342367 179.04 
L 318.17084 179.04 
L 321.999314 179.04 
L 325.827787 179.04 
L 329.656261 162.24 
L 333.484734 162.24 
L 337.313208 162.24 
L 341.141681 162.24 
L 344.970154 162.24 
L 348.798628 162.24 
L 352.627101 162.24 
L 356.455575 162.24 
L 360.284048 162.24 
L 364.112521 195.84 
L 367.940995 195.84 
L 371.769468 195.84 
L 375.597942 195.84 
L 379.426415 195.84 
L 383.254889 229.44 
L 387.083362 229.44 
L 390.911835 229.44 
L 394.740309 229.44 
L 398.568782 229.44 
L 402.397256 229.44 
L 406.225729 229.44 
L 410.054202 229.44 
L 413.882676 229.44 
L 417.711149 229.44 
L 421.539623 212.64 
L 425.368096 212.64 
L 429.196569 212.64 
L 433.025043 212.64 
L 436.853516 212.64 
L 440.68199 212.64 
L 444.510463 246.24 
L 448.338937 246.24 
L 452.16741 246.24 
L 455.995883 246.24 
L 459.824357 246.24 
L 463.65283 246.24 
L 467.481304 246.24 
L 471.309777 246.24 
L 475.13825 246.24 
L 478.966724 246.24 
L 482.795197 246.24 
L 486.623671 246.24 
L 490.452144 246.24 
L 494.280617 246.24 
L 498.109091 246.24 
" clip-path="url(#p34e055168c)" style="fill: none; stroke: #ffd700; stroke-width: 2; stroke-linecap: square"/>
   </g>
   <g id="line2d_29">
    <path d="M 92.290909 246.24 
L 96.119383 246.24 
L 99.947856 246.24 
L 103.776329 246.24 
L 107.604803 246.24 
L 111.433276 246.24 
L 115.26175 246.24 
L 119.090223 246.24 
L 122.918696 246.24 
L 126.74717 246.24 
L 130.575643 246.24 
L 134.404117 246.24 
L 138.23259 246.24 
L 142.061063 246.24 
L 145.889537 246.24 
L 149.71801 246.24 
L 153.546484 246.24 
L 157.374957 246.24 
L 161.203431 246.24 
L 165.031904 246.24 
L 168.860377 246.24 
L 172.688851 246.24 
L 176.517324 246.24 
L 180.345798 246.24 
L 184.174271 246.24 
L 188.002744 246.24 
L 191.831218 246.24 
L 195.659691 246.24 
L 199.488165 246.24 
L 203.316638 246.24 
L 207.145111 246.24 
L 210.973585 246.24 
L 214.802058 246.24 
L 218.630532 246.24 
L 222.459005 246.24 
L 226.287479 246.24 
L 230.115952 246.24 
L 233.944425 246.24 
L 237.772899 246.24 
L 241.601372 246.24 
L 245.429846 246.24 
L 249.258319 246.24 
L 253.086792 246.24 
L 256.915266 246.24 
L 260.743739 246.24 
L 264.572213 246.24 
L 268.400686 246.24 
L 272.22916 246.24 
L 276.057633 246.24 
L 279.886106 246.24 
L 283.71458 246.24 
L 287.543053 246.24 
L 291.371527 246.24 
L 295.2 246.24 
L 299.028473 246.24 
L 302.856947 246.24 
L 306.68542 246.24 
L 310.513894 246.24 
L 314.342367 246.24 
L 318.17084 246.24 
L 321.999314 246.24 
L 325.827787 246.24 
L 329.656261 246.24 
L 333.484734 246.24 
L 337.313208 246.24 
L 341.141681 246.24 
L 344.970154 246.24 
L 348.798628 246.24 
L 352.627101 246.24 
L 356.455575 246.24 
L 360.284048 246.24 
L 364.112521 229.44 
L 367.940995 229.44 
L 371.769468 229.44 
L 375.597942 229.44 
L 379.426415 229.44 
L 383.254889 212.64 
L 387.083362 212.64 
L 390.911835 212.64 
L 394.740309 212.64 
L 398.568782 212.64 
L 402.397256 212.64 
L 406.225729 212.64 
L 410.054202 212.64 
L 413.882676 212.64 
L 417.711149 212.64 
L 421.539623 212.64 
L 425.368096 212.64 
L 429.196569 212.64 
L 433.025043 212.64 
L 436.853516 212.64 
L 440.68199 212.64 
L 444.510463 195.84 
L 448.338937 195.84 
L 452.16741 195.84 
L 455.995883 195.84 
L 459.824357 195.84 
L 463.65283 195.84 
L 467.481304 195.84 
L 471.309777 195.84 
L 475.13825 195.84 
L 478.966724 195.84 
L 482.795197 195.84 
L 486.623671 195.84 
L 490.452144 195.84 
L 494.280617 195.84 
L 498.109091 195.84 
" clip-path="url(#p34e055168c)" style="fill: none; stroke: #ff0000; stroke-width: 2; stroke-linecap: square"/>
   </g>
   <g id="patch_3">
    <path d="M 72 256.32 
L 72 34.56 
" style="fill: none; stroke: #000000; stroke-width: 0.8; stroke-linejoin: miter; stroke-linecap: square"/>
   </g>
   <g id="patch_4">
    <path d="M 518.4 256.32 
L 518.4 34.56 
" style="fill: none; stroke: #000000; stroke-width: 0.8; stroke-linejoin: miter; stroke-linecap: square"/>
   </g>
   <g id="patch_5">
    <path d="M 72 256.32 
L 518.4 256.32 
" style="fill: none; stroke: #000000; stroke-width: 0.8; stroke-linejoin: miter; stroke-linecap: square"/>
   </g>
   <g id="patch_6">
    <path d="M 72 34.56 
L 518.4 34.56 
" style="fill: none; stroke: #000000; stroke-width: 0.8; stroke-linejoin: miter; stroke-linecap: square"/>
   </g>
   <g id="text_16">
    <!-- Waste evolution over time -->
    <g transform="translate(216.27 28.56) scale(0.12 -0.12)">
     <defs>
      <path id="DejaVuSans-57" d="M 213 4666 
L 850 4666 
L 1831 722 
L 2809 4666 
L 3519 4666 
L 4500 722 
L 5478 4666 
L 6119 4666 
L 4947 0 
L 4153 0 
L 3169 4050 
L 2175 0 
L 1381 0 
L 213 4666 
z
" transform="scale(0.015625)"/>
      <path id="DejaVuSans-76" d="M 191 3500 
L 800 3500 
L 1894 563 
L 2988 3500 
L 3597 3500 
L 2284 0 
L 1503 0 
L 191 3500 
z
" transform="scale(0.015625)"/>
      <path id="DejaVuSans-6c" d="M 603 4863 
L 1178 4863 
L 1178 0 
L 603 0 
L 603 4863 
z
" transform="scale(0.015625)"/>
      <path id="DejaVuSans-69" d="M 603 3500 
L 1178 3500 
L 1178 0 
L 603 0 
L 603 3500 
z
M 603 4863 
L 1178 4863 
L 1178 4134 
L 603 4134 
L 603 4863 
z
" transform="scale(0.015625)"/>
      <path id="DejaVuSans-6e" d="M 3513 2113 
L 3513 0 
L 2938 0 
L 2938 2094 
Q 2938 2591 2744 2837 
Q 2550 3084 2163 3084 
Q 1697 3084 1428 2787 
Q 1159 2491 1159 1978 
L 1159 0 
L 581 0 
L 581 3500 
L 1159 3500 
L 1159 2956 
Q 1366 3272 1645 3428 
Q 1925 3584 2291 3584 
Q 2894 3584 3203 3211 
Q 3513 2838 3513 2113 
z
" transform="scale(0.015625)"/>
     </defs>
     <use xlink:href="#DejaVuSans-57"/>
     <use xlink:href="#DejaVuSans-61" transform="translate(92.501953 0)"/>
     <use xlink:href="#DejaVuSans-73" transform="translate(153.78125 0)"/>
     <use xlink:href="#DejaVuSans-74" transform="translate(205.880859 0)"/>
     <use xlink:href="#DejaVuSans-65" transform="translate(245.089844 0)"/>
     <use xlink:href="#DejaVuSans-20" transform="translate(306.613281 0)"/>
     <use xlink:href="#DejaVuSans-65" transform="translate(338.400391 0)"/>
     <use xlink:href="#DejaVuSans-76" transform="translate(399.923828 0)"/>
     <use xlink:href="#DejaVuSans-6f" transform="translate(459.103516 0)"/>
     <use xlink:href="#DejaVuSans-6c" transform="translate(520.285156 0)"/>
     <use xlink:href="#DejaVuSans-75" transform="translate(548.068359 0)"/>
     <use xlink:href="#DejaVuSans-74" transform="translate(611.447266 0)"/>
     <use xlink:href="#DejaVuSans-69" transform="translate(650.65625 0)"/>
     <use xlink:href="#DejaVuSans-6f" transform="translate(678.439453 0)"/>
     <use xlink:href="#DejaVuSans-6e" transform="translate(739.621094 0)"/>
     <use xlink:href="#DejaVuSans-20" transform="translate(803 0)"/>
     <use xlink:href="#DejaVuSans-6f" transform="translate(834.787109 0)"/>
     <use xlink:href="#DejaVuSans-76" transform="translate(895.96875 0)"/>
     <use xlink:href="#DejaVuSans-65" transform="translate(955.148438 0)"/>
     <use xlink:href="#DejaVuSans-72" transform="translate(1016.671875 0)"/>
     <use xlink:href="#DejaVuSans-20" transform="translate(1057.785156 0)"/>
     <use xlink:href="#DejaVuSans-74" transform="translate(1089.572266 0)"/>
     <use xlink:href="#DejaVuSans-69" transform="translate(1128.78125 0)"/>
     <use xlink:href="#DejaVuSans-6d" transform="translate(1156.564453 0)"/>
     <use xlink:href="#DejaVuSans-65" transform="translate(1253.976562 0)"/>
    </g>
   </g>
   <g id="legend_1">
    <g id="patch_7">
     <path d="M 415.84375 86.594375 
L 511.4 86.594375 
Q 513.4 86.594375 513.4 84.594375 
L 513.4 41.56 
Q 513.4 39.56 511.4 39.56 
L 415.84375 39.56 
Q 413.84375 39.56 413.84375 41.56 
L 413.84375 84.594375 
Q 413.84375 86.594375 415.84375 86.594375 
z
" style="fill: #ffffff; opacity: 0.8; stroke: #cccccc; stroke-linejoin: miter"/>
    </g>
    <g id="line2d_30">
     <path d="M 417.84375 47.658438 
L 427.84375 47.658438 
L 437.84375 47.658438 
" style="fill: none; stroke: #008000; stroke-width: 2; stroke-linecap: square"/>
    </g>
    <g id="text_17">
     <!-- Green waste -->
     <g transform="translate(445.84375 51.158438) scale(0.1 -0.1)">
      <defs>
       <path id="DejaVuSans-47" d="M 3809 666 
L 3809 1919 
L 2778 1919 
L 2778 2438 
L 4434 2438 
L 4434 434 
Q 4069 175 3628 42 
Q 3188 -91 2688 -91 
Q 1594 -91 976 548 
Q 359 1188 359 2328 
Q 359 3472 976 4111 
Q 1594 4750 2688 4750 
Q 3144 4750 3555 4637 
Q 3966 4525 4313 4306 
L 4313 3634 
Q 3963 3931 3569 4081 
Q 3175 4231 2741 4231 
Q 1884 4231 1454 3753 
Q 1025 3275 1025 2328 
Q 1025 1384 1454 906 
Q 1884 428 2741 428 
Q 3075 428 3337 486 
Q 3600 544 3809 666 
z
" transform="scale(0.015625)"/>
      </defs>
      <use xlink:href="#DejaVuSans-47"/>
      <use xlink:href="#DejaVuSans-72" transform="translate(77.490234 0)"/>
      <use xlink:href="#DejaVuSans-65" transform="translate(116.353516 0)"/>
      <use xlink:href="#DejaVuSans-65" transform="translate(177.876953 0)"/>
      <use xlink:href="#DejaVuSans-6e" transform="translate(239.400391 0)"/>
      <use xlink:href="#DejaVuSans-20" transform="translate(302.779297 0)"/>
      <use xlink:href="#DejaVuSans-77" transform="translate(334.566406 0)"/>
      <use xlink:href="#DejaVuSans-61" transform="translate(416.353516 0)"/>
      <use xlink:href="#DejaVuSans-73" transform="translate(477.632812 0)"/>
      <use xlink:href="#DejaVuSans-74" transform="translate(529.732422 0)"/>
      <use xlink:href="#DejaVuSans-65" transform="translate(568.941406 0)"/>
     </g>
    </g>
    <g id="line2d_31">
     <path d="M 417.84375 62.336563 
L 427.84375 62.336563 
L 437.84375 62.336563 
" style="fill: none; stroke: #ffd700; stroke-width: 2; stroke-linecap: square"/>
    </g>
    <g id="text_18">
     <!-- Yellow waste -->
     <g transform="translate(445.84375 65.836563) scale(0.1 -0.1)">
      <defs>
       <path id="DejaVuSans-59" d="M -13 4666 
L 666 4666 
L 1959 2747 
L 3244 4666 
L 3922 4666 
L 2272 2222 
L 2272 0 
L 1638 0 
L 1638 2222 
L -13 4666 
z
" transform="scale(0.015625)"/>
      </defs>
      <use xlink:href="#DejaVuSans-59"/>
      <use xlink:href="#DejaVuSans-65" transform="translate(47.833984 0)"/>
      <use xlink:href="#DejaVuSans-6c" transform="translate(109.357422 0)"/>
      <use xlink:href="#DejaVuSans-6c" transform="translate(137.140625 0)"/>
      <use xlink:href="#DejaVuSans-6f" transform="translate(164.923828 0)"/>
      <use xlink:href="#DejaVuSans-77" transform="translate(226.105469 0)"/>
      <use xlink:href="#DejaVuSans-20" transform="translate(307.892578 0)"/>
      <use xlink:href="#DejaVuSans-77" transform="translate(339.679688 0)"/>
      <use xlink:href="#DejaVuSans-61" transform="translate(421.466797 0)"/>
      <use xlink:href="#DejaVuSans-73" transform="translate(482.746094 0)"/>
      <use xlink:href="#DejaVuSans-74" transform="translate(534.845703 0)"/>
      <use xlink:href="#DejaVuSans-65" transform="translate(574.054688 0)"/>
     </g>
    </g>
    <g id="line2d_32">
     <path d="M 417.84375 77.014688 
L 427.84375 77.014688 
L 437.84375 77.014688 
" style="fill: none; stroke: #ff0000; stroke-width: 2; stroke-linecap: square"/>
    </g>
    <g id="text_19">
     <!-- Red waste -->
     <g transform="translate(445.84375 80.514688) scale(0.1 -0.1)">
      <defs>
       <path id="DejaVuSans-52" d="M 2841 2188 
Q 3044 2119 3236 1894 
Q 3428 1669 3622 1275 
L 4263 0 
L 3584 0 
L 2988 1197 
Q 2756 1666 2539 1819 
Q 2322 1972 1947 1972 
L 1259 1972 
L 1259 0 
L 628 0 
L 628 4666 
L 2053 4666 
Q 2853 4666 3247 4331 
Q 3641 3997 3641 3322 
Q 3641 2881 3436 2590 
Q 3231 2300 2841 2188 
z
M 1259 4147 
L 1259 2491 
L 2053 2491 
Q 2509 2491 2742 2702 
Q 2975 2913 2975 3322 
Q 2975 3731 2742 3939 
Q 2509 4147 2053 4147 
L 1259 4147 
z
" transform="scale(0.015625)"/>
       <path id="DejaVuSans-64" d="M 2906 2969 
L 2906 4863 
L 3481 4863 
L 3481 0 
L 2906 0 
L 2906 525 
Q 2725 213 2448 61 
Q 2172 -91 1784 -91 
Q 1150 -91 751 415 
Q 353 922 353 1747 
Q 353 2572 751 3078 
Q 1150 3584 1784 3584 
Q 2172 3584 2448 3432 
Q 2725 3281 2906 2969 
z
M 947 1747 
Q 947 1113 1208 752 
Q 1469 391 1925 391 
Q 2381 391 2643 752 
Q 2906 1113 2906 1747 
Q 2906 2381 2643 2742 
Q 2381 3103 1925 3103 
Q 1469 3103 1208 2742 
Q 947 2381 947 1747 
z
" transform="scale(0.015625)"/>
      </defs>
      <use xlink:href="#DejaVuSans-52"/>
      <use xlink:href="#DejaVuSans-65" transform="translate(64.982422 0)"/>
      <use xlink:href="#DejaVuSans-64" transform="translate(126.505859 0)"/>
      <use xlink:href="#DejaVuSans-20" transform="translate(189.982422 0)"/>
      <use xlink:href="#DejaVuSans-77" transform="translate(221.769531 0)"/>
      <use xlink:href="#DejaVuSans-61" transform="translate(303.556641 0)"/>
      <use xlink:href="#DejaVuSans-73" transform="translate(364.835938 0)"/>
      <use xlink:href="#DejaVuSans-74" transform="translate(416.935547 0)"/>
      <use xlink:href="#DejaVuSans-65" transform="translate(456.144531 0)"/>
     </g>
    </g>
   </g>
  </g>
 </g>
 <defs>
  <clipPath id="p34e055168c">
   <rect x="72" y="34.56" width="446.4" height="221.76"/>
  </clipPath>
 </defs>
</svg>
